<svg xmlns="http://www.w3.org/2000/svg" width="20" height="20" fill="none" viewBox="0 0 20 20"><path fill="#242424" d="M18 10a8 8 0 1 0-16 0l.007.346.026.382a8 8 0 0 0 .829 2.887l.063.12-.91 3.644-.014.083v.082a.5.5 0 0 0 .62.441l3.645-.91.12.064A8 8 0 0 0 18 10"/><path fill="url(#a)" d="M18 10a8 8 0 1 0-16 0l.007.346.026.382a8 8 0 0 0 .829 2.887l.063.12-.91 3.644-.014.083v.082a.5.5 0 0 0 .62.441l3.645-.91.12.064A8 8 0 0 0 18 10"/><defs><radialGradient id="a" cx="0" cy="0" r="1" gradientTransform="matrix(12.8889 22.7403 -28.9811 13.9894 4.222 -1.37)" gradientUnits="userSpaceOnUse"><stop offset=".066" stop-color="#8c48ff"/><stop offset=".5" stop-color="#f2598a"/><stop offset=".896" stop-color="#ffb152"/></radialGradient></defs></svg>