<svg xmlns="http://www.w3.org/2000/svg" width="20" height="20" fill="none" viewBox="0 0 20 20"><path fill="red" d="M9 10a2 2 0 0 1 2-2h5a2 2 0 0 1 2 2v5a2 2 0 0 1-2 2h-5a2 2 0 0 1-2-2z"/><path fill="url(#a)" d="M9 10a2 2 0 0 1 2-2h5a2 2 0 0 1 2 2v5a2 2 0 0 1-2 2h-5a2 2 0 0 1-2-2z"/><path fill="#d9d9d9" d="M14 8A5 5 0 1 1 4 8a5 5 0 0 1 10 0"/><path fill="url(#b)" d="M14 8A5 5 0 1 1 4 8a5 5 0 0 1 10 0"/><path fill="url(#c)" fill-opacity=".6" d="M14 8A5 5 0 1 1 4 8a5 5 0 0 1 10 0"/><path fill="url(#d)" fill-opacity=".6" d="M14 8A5 5 0 1 1 4 8a5 5 0 0 1 10 0"/><path fill="url(#e)" d="M9 13a5 5 0 0 0 5-5h-3a2 2 0 0 0-2 2z"/><path fill="url(#f)" d="M9 13a5 5 0 0 0 5-5h-3a2 2 0 0 0-2 2z"/><path fill="url(#g)" d="M4 6.856c.497 0 1.016.445 1.189.671h.004l.062.073c.28.344.443.79.545 1.23.2.87.2 1.916.2 2.645v.025c0 2.787-.379 4.368-.796 5.272-.21.455-.433.745-.626.927a1.5 1.5 0 0 1-.258.198 1 1 0 0 1-.133.067S4.074 18 4 18s-.187-.036-.187-.036a1 1 0 0 1-.133-.067 1.5 1.5 0 0 1-.258-.198c-.193-.183-.416-.472-.626-.927C2.379 15.868 2 14.287 2 11.5v-.025c0-.73 0-1.775.2-2.645.102-.44.265-.886.545-1.23q.03-.038.064-.074l-.002-.001.005-.002c.15-.227.606-.667 1.188-.667"/><path fill="#fff" fill-opacity=".24" d="M2.08 9.537q.043-.365.12-.707c.102-.44.265-.886.545-1.23q.03-.038.064-.074l-.002-.001.005-.002c.15-.227.606-.667 1.188-.667.497 0 1.016.445 1.189.671h.004l.062.073c.28.344.443.79.545 1.23q.077.342.12.707C5.398 9.827 4.73 10 4 10s-1.399-.174-1.92-.463"/><path fill="#424242" d="M4.704 2.71a.5.5 0 0 0-.731-.626l-.002.001-.003.002-.009.006-.03.02-.102.075a6 6 0 0 0-.33.269c-.252.22-.577.547-.808.937a4.7 4.7 0 0 0-.482 1.032C2.087 4.785 2 5.174 2 5.5c0 .853.316 1.58.809 2.026.202.226.706.568 1.226.568.515 0 .986-.367 1.165-.559l-.009-.009C5.684 7.08 6 6.353 6 5.5c0-.697-.141-1.176-.396-1.559a2.8 2.8 0 0 0-.39-.453l-.17-.16c-.061-.057-.117-.109-.19-.182-.15-.15-.167-.27-.167-.333a.3.3 0 0 1 .017-.103"/><path fill="url(#h)" d="M4.704 2.71a.5.5 0 0 0-.731-.626l-.002.001-.003.002-.009.006-.03.02-.102.075a6 6 0 0 0-.33.269c-.252.22-.577.547-.808.937a4.7 4.7 0 0 0-.482 1.032C2.087 4.785 2 5.174 2 5.5c0 .853.316 1.58.809 2.026.202.226.706.568 1.226.568.515 0 .986-.367 1.165-.559l-.009-.009C5.684 7.08 6 6.353 6 5.5c0-.697-.141-1.176-.396-1.559a2.8 2.8 0 0 0-.39-.453l-.17-.16c-.061-.057-.117-.109-.19-.182-.15-.15-.167-.27-.167-.333a.3.3 0 0 1 .017-.103"/><defs><radialGradient id="a" cx="0" cy="0" r="1" gradientTransform="matrix(7.8504 7.18407 -9.73948 10.6798 10.15 8.643)" gradientUnits="userSpaceOnUse"><stop stop-color="#c354ff"/><stop offset=".158" stop-color="#b339f0"/><stop offset=".429" stop-color="#f24a9d"/><stop offset=".749" stop-color="#ff835c"/><stop offset="1" stop-color="#ffc470"/></radialGradient><radialGradient id="b" cx="0" cy="0" r="1" gradientTransform="matrix(2.72446 -13.2508 13.2555 2.70147 4.929 15.446)" gradientUnits="userSpaceOnUse"><stop offset=".222" stop-color="#4e46e2"/><stop offset=".578" stop-color="#625df6"/><stop offset=".955" stop-color="#e37dff"/></radialGradient><radialGradient id="c" cx="0" cy="0" r="1" gradientTransform="rotate(-17.281 36.305 -3.526)scale(5.46112 7.14855)" gradientUnits="userSpaceOnUse"><stop offset=".566" stop-color="#251fba"/><stop offset="1" stop-color="#5e51e4" stop-opacity="0"/></radialGradient><radialGradient id="d" cx="0" cy="0" r="1" gradientTransform="rotate(8.26 -46.745 19.473)scale(5.02351 5.13502)" gradientUnits="userSpaceOnUse"><stop offset=".566" stop-color="#251fba"/><stop offset="1" stop-color="#5e51e4" stop-opacity="0"/></radialGradient><radialGradient id="g" cx="0" cy="0" r="1" gradientTransform="matrix(-5.09091 .20336 -.40103 -12.5594 2.455 11.874)" gradientUnits="userSpaceOnUse"><stop offset=".033" stop-color="#f34e99"/><stop offset=".56" stop-color="#c61ebb"/></radialGradient><radialGradient id="h" cx="0" cy="0" r="1" gradientTransform="matrix(-2.31818 5.48438 -3.70544 -1.95484 5.182 3.727)" gradientUnits="userSpaceOnUse"><stop stop-color="#fead54"/><stop offset=".471" stop-color="#ff835c"/></radialGradient><linearGradient id="e" x1="13.509" x2="9.772" y1="12.927" y2="7.434" gradientUnits="userSpaceOnUse"><stop offset=".195" stop-color="#6d37cd"/><stop offset=".765" stop-color="#ea71ef"/></linearGradient><linearGradient id="f" x1="14.3" x2="8.34" y1="14.218" y2="5.888" gradientUnits="userSpaceOnUse"><stop offset=".195" stop-color="#7631ff"/><stop offset=".886" stop-color="#e63080"/></linearGradient></defs></svg>